<?xml version="1.0" encoding="UTF-8" standalone="no"?>
<svg
	xmlns="http://www.w3.org/2000/svg"
	width="150"
	height="150"
	viewBox="0 0 150 150"
	fill="none"
	version="1.1"
>
	<path
		fill-rule="evenodd"
		clip-rule="evenodd"
		d="m 31.246069,3.1246069 c 15.531483,0 28.121462,12.5900411 28.121462,28.1214621 0,15.531483 -12.589979,28.121462 -28.121462,28.121462 -15.531421,0 -28.1214621,-12.589979 -28.1214621,-28.121462 0,-15.531421 12.5900411,-28.1214621 28.1214621,-28.1214621 z"
		stroke="#2088ff"
		stroke-width="6.24921"
		stroke-linecap="round"
		stroke-linejoin="round"
		id="path833"
	/>
	<path
		fill-rule="evenodd"
		clip-rule="evenodd"
		d="m 71.865958,59.367531 c 10.35401,0 18.747642,8.393631 18.747642,18.747641 0,10.35401 -8.393632,18.747641 -18.747642,18.747641 -10.35401,0 -18.747641,-8.393631 -18.747641,-18.747641 0,-10.35401 8.393631,-18.747641 18.747641,-18.747641 z"
		stroke="#2088ff"
		stroke-width="6.24921"
		stroke-linecap="round"
		stroke-linejoin="round"
		id="path835"
	/>
	<path
		fill-rule="evenodd"
		clip-rule="evenodd"
		d="m 71.865958,109.36124 c 10.35401,0 18.747642,8.39363 18.747642,18.74764 0,10.35401 -8.393632,18.74764 -18.747642,18.74764 -10.35401,0 -18.747641,-8.39363 -18.747641,-18.74764 0,-10.35401 8.393631,-18.74764 18.747641,-18.74764 z"
		stroke="#2088ff"
		stroke-width="6.24921"
		stroke-linecap="round"
		stroke-linejoin="round"
		id="path837"
	/>
	<path
		fill-rule="evenodd"
		clip-rule="evenodd"
		d="m 128.10888,109.36124 c 10.35401,0 18.74764,8.39363 18.74764,18.74764 0,10.35401 -8.39363,18.74764 -18.74764,18.74764 -10.35401,0 -18.74764,-8.39363 -18.74764,-18.74764 0,-10.35401 8.39363,-18.74764 18.74764,-18.74764 z"
		stroke="#79b8ff"
		stroke-width="6.24921"
		stroke-linecap="round"
		stroke-linejoin="round"
		id="path839"
	/>
	<path
		d="m 78.22922,73.762282 -9.590043,9.577233 -4.657852,-4.641291"
		stroke="#2088ff"
		stroke-width="6.24921"
		stroke-linecap="round"
		stroke-linejoin="round"
		id="path841"
	/>
	<path
		fill-rule="evenodd"
		clip-rule="evenodd"
		d="m 128.10888,59.367531 c 10.35401,0 18.74764,8.393631 18.74764,18.747641 0,10.35401 -8.39363,18.747641 -18.74764,18.747641 -10.35401,0 -18.74764,-8.393631 -18.74764,-18.747641 0,-10.35401 8.39363,-18.747641 18.74764,-18.747641 z"
		stroke="#2088ff"
		stroke-width="6.24921"
		stroke-linecap="round"
		stroke-linejoin="round"
		id="path843"
	/>
	<path
		d="m 134.47214,73.762282 -9.59004,9.577233 -4.65785,-4.641291"
		stroke="#2088ff"
		stroke-width="6.24921"
		stroke-linecap="round"
		stroke-linejoin="round"
		id="path845"
	/>
	<path
		d="m 21.872248,21.284853 c 0,-2.459159 2.709316,-3.954502 4.790023,-2.643761 L 42.63901,28.705513 c 1.953817,1.230783 1.943506,4.082549 -0.01875,5.299271 L 26.643429,43.91135 c -2.081519,1.290463 -4.771181,-0.206536 -4.771181,-2.655603 z"
		stroke="#2088ff"
		stroke-width="6.24921"
		stroke-linecap="round"
		stroke-linejoin="round"
		id="path847"
	/>
	<path
		d="m 28.121462,59.367531 v 46.869099 c 0,12.07973 9.927501,21.87225 21.872248,21.87225 h 3.124607"
		stroke="#2088ff"
		stroke-width="6.24921"
		stroke-linecap="round"
		stroke-linejoin="round"
		id="path849"
	/>
	<path
		d="m 52.958962,81.239779 c 1.72572,0 3.124607,-1.398887 3.124607,-3.124607 0,-1.72572 -1.398887,-3.124607 -3.124607,-3.124607 z M 24.996855,59.477517 c 0,12.0188 9.743462,21.762262 21.762262,21.762262 v -6.249214 c -8.567672,0 -15.513048,-6.945376 -15.513048,-15.513048 z m 21.762262,21.762262 h 6.199845 v -6.249214 h -6.199845 z"
		fill="#2088ff"
		id="path851"
		style="stroke-width: 3.12461"
	/>
	<path
		d="M 90.784516,78.115172 H 109.35905"
		stroke="#2088ff"
		stroke-width="6.24921"
		stroke-linecap="round"
		stroke-linejoin="round"
		id="path853"
	/>
	<path
		fill-rule="evenodd"
		clip-rule="evenodd"
		d="m 65.616744,124.98428 c 1.724159,0 3.124607,1.40044 3.124607,3.1246 0,1.72666 -1.400448,3.12461 -3.124607,3.12461 -1.724158,0 -3.124606,-1.39795 -3.124606,-3.12461 0,-1.72416 1.400448,-3.1246 3.124606,-3.1246 z"
		fill="#79b8ff"
		id="path855"
		style="stroke-width: 3.12461"
	/>
	<path
		fill-rule="evenodd"
		clip-rule="evenodd"
		d="m 78.115172,124.98428 c 1.724158,0 3.124607,1.40044 3.124607,3.1246 0,1.72666 -1.400449,3.12461 -3.124607,3.12461 -1.724158,0 -3.124607,-1.39795 -3.124607,-3.12461 0,-1.72416 1.400449,-3.1246 3.124607,-3.1246 z"
		fill="#79b8ff"
		id="path857"
		style="stroke-width: 3.12461"
	/>
	<path
		d="m 106.25163,128.13044 -3.16397,0.10311"
		stroke="#79b8ff"
		stroke-width="6.24921"
		stroke-linecap="round"
		id="path859"
	/>
	<!-- PROGRESS SPIN START -->
	<path
		opacity="0.5"
		d="m 128.26469,139.87635 a 12.14124,12.14124 0 1 0 0,-24.28248 12.14124,12.14124 0 0 0 0,24.28248 z"
		stroke="#dbab0a"
		stroke-width="3.46894"
		id="path861"
	/>
	<path
		d="m 140.40593,127.73511 a 12.141239,12.141239 0 0 1 -12.14124,12.14124"
		stroke="#dbab0a"
		stroke-width="3.46894"
		id="path863"
	/>
	<path
		d="m 128.26469,134.67296 a 6.9378521,6.9378521 0 1 0 0,-13.8757 6.9378521,6.9378521 0 0 0 0,13.8757 z"
		fill="#dbab0a"
		id="path865"
		style="stroke-width: 1.73446"
	/>
	<!-- PROGRESS SPIN END -->
</svg>
